<svg xmlns="http://www.w3.org/2000/svg" width="1200" height="750" viewBox="0 0 1200 750" role="img" aria-labelledby="title">
  <title id="title">NetOps ticketing system preview</title>
  <rect width="1200" height="750" fill="#080b16"/>
  <rect x="78" y="74" width="1044" height="602" rx="34" fill="#111827"/>
  <rect x="132" y="132" width="240" height="486" rx="24" fill="#0f172a"/>
  <rect x="414" y="132" width="654" height="122" rx="24" fill="#1e293b"/>
  <rect x="414" y="292" width="654" height="326" rx="24" fill="#0f172a"/>
  <g fill="#38bdf8">
    <rect x="462" y="338" width="180" height="18" rx="9"/>
    <rect x="462" y="406" width="282" height="18" rx="9"/>
    <rect x="462" y="474" width="224" height="18" rx="9"/>
  </g>
  <g fill="#f8fafc" opacity=".82">
    <rect x="168" y="176" width="138" height="18" rx="9"/>
    <rect x="168" y="236" width="166" height="14" rx="7"/>
    <rect x="168" y="286" width="128" height="14" rx="7"/>
    <rect x="462" y="178" width="330" height="22" rx="11"/>
  </g>
  <circle cx="925" cy="455" r="88" fill="#0e7490"/>
  <path d="M875 455h100M925 405v100" stroke="#e0f2fe" stroke-width="18" stroke-linecap="round"/>
</svg>
