<svg xmlns="http://www.w3.org/2000/svg" width="1200" height="750" viewBox="0 0 1200 750" role="img" aria-labelledby="title">
  <title id="title">QA audit report preview</title>
  <rect width="1200" height="750" fill="#10080b"/>
  <rect x="98" y="76" width="1004" height="598" rx="34" fill="#18181b"/>
  <rect x="154" y="134" width="392" height="456" rx="22" fill="#27272a"/>
  <rect x="606" y="134" width="340" height="92" rx="20" fill="#7f1d1d"/>
  <rect x="606" y="258" width="340" height="92" rx="20" fill="#78350f"/>
  <rect x="606" y="382" width="340" height="92" rx="20" fill="#164e63"/>
  <g stroke="#fb7185" stroke-width="16" stroke-linecap="round">
    <path d="M214 228l38 38 86-98"/>
    <path d="M214 362l38 38 86-98"/>
    <path d="M214 496l38 38 86-98"/>
  </g>
  <g fill="#f4f4f5" opacity=".86">
    <rect x="376" y="214" width="114" height="16" rx="8"/>
    <rect x="376" y="348" width="114" height="16" rx="8"/>
    <rect x="376" y="482" width="114" height="16" rx="8"/>
    <rect x="650" y="170" width="174" height="16" rx="8"/>
    <rect x="650" y="294" width="210" height="16" rx="8"/>
    <rect x="650" y="418" width="184" height="16" rx="8"/>
  </g>
</svg>
